# xmcd CD database file
#
# Track frame offsets:
# 150
# 15900
# 27450
# 40295
# 51420
# 60907
# 71145
# 81447
# 94700
# 106012
# 122940
# 135920
# 146960
# 156784
# 168592
# 180747
# 192762
# 205490
# 217687
# 228615
# 242205
# 253605
#
# Disc length: 3651 seconds
# Revision: 6
# Processed by: cddbd v1.5.2PL0 Copyright (c) Steve Scherf et al.
# Submitted via: MusicBin 0.4
#
DISCID=390e4116
DTITLE=Patsy Cline - The Patsy Cline Collection [CD4]
DYEAR=1991
DGENRE=Country
TTITLE0=Why Can't He Be You
TTITLE1=Your Kinda Love
TTITLE2=When You Need A Laugh
TTITLE3=Leavin' On Your Mind
TTITLE4=Back In Baby's Arms
TTITLE5=Tra Le La Le La Triangle
TTITLE6=That's How A Heartache Begins
TTITLE7=Leavin' On Your Mind
TTITLE8=Tennessee Waltz
TTITLE9=Faded Love
TTITLE10=Someday (You'll Want Me To Love You)
TTITLE11=Love Letters In The Sand
TTITLE12=Blue Moon Of Kentucky
TTITLE13=Sweet Dreams (Of You)
TTITLE14=Always
TTITLE15=Does Your Heart Beat For Me
TTITLE16=Bill Bailey, Won't You Please Come Home
TTITLE17=He Called Me Baby
TTITLE18=Crazy Arms
TTITLE19=You Took Him Off My Hands  
TTITLE20=I'll Sail My Ship Alone 
TTITLE21=Just A Closer Walk With Thee
EXTD=ID3G:   2
EXTT0=YEAR: 1962
EXTT1=YEAR: 1962
EXTT2=YEAR: 1962
EXTT3=YEAR: 1962
EXTT4=YEAR: 1962
EXTT5=YEAR: 1962
EXTT6=YEAR: 1962
EXTT7=Radio Transcription\nYEAR: 1963
EXTT8=Radio Transcription\nYEAR: 1963
EXTT9=YEAR: 1963
EXTT10=YEAR: 1963
EXTT11=YEAR: 1963
EXTT12=YEAR: 1963
EXTT13=YEAR: 1963
EXTT14=YEAR: 1963
EXTT15=YEAR: 1963
EXTT16=YEAR: 1963
EXTT17=YEAR: 1963
EXTT18=YEAR: 1963
EXTT19=YEAR: 1963
EXTT20=YEAR: 1963
EXTT21=YEAR: 1963
PLAYORDER=
